Gangs of New York*2002*[BluRay][720p][ENG, POL]

General information:
Country: USA, Italy 
Release: 9 December 2002
Genre: Crime, Drama, History 
Director: Martin Scorsese
Screenplay: Jay Cocks, Kenneth Lonergan, Martin Scorsese
Original Music: Elmer Bernstein
Cinematography by: Michael Ballhaus
Duration: 2h 46mn
Language: English, Polish 
Subtitles: English, Polish 
Rating: 7.1/10 - 24507 votes

Cast:
Leonardo DiCaprio  ...  Amsterdam Vallon  
Daniel Day-Lewis  ...  Bill 'The Butcher' Cutting  
Cameron Diaz  ...  Jenny Everdeane  
Jim Broadbent  ...  William 'Boss' Tweed  
John C. Reilly  ...  Happy Jack Mulraney  
Henry Thomas  ...  Johnny Sirocco  
Liam Neeson  ...  'Priest' Vallon  
Brendan Gleeson  ...  Walter 'Monk' McGinn  
Gary Lewis  ...  McGloin  
Stephen Graham  ...  Shang  
Eddie Marsan  ...  Killoran  
Alec McCowen  ...  Reverend Raleigh (as Alec Mccowen)  
David Hemmings  ...  Mr. Schermerhorn  
Larry Gilliard Jr.  ...  Jimmy Spoils  
Cara Seymour  ...  Hell-Cat Maggie  

Plot:
In 1863, Amsterdam Vallon returns to the Five Points area of New York City seeking revenge against Bill the Butcher, his father's killer.

Specifications:
General
Format                           : Matroska
Overall bit rate                 : 7 045 Kbps

Video
Format                           : AVC
Format/Info                      : Advanced Video Codec
Format profile                   : High@L5.1
Format settings, CABAC           : Yes
Format settings, ReFrames        : 8 frames
Muxing mode                      : Container profile=Unknown@5.1
Codec ID                         : V_MPEG4/ISO/AVC
Bit rate                         : 5 317 Kbps
Width                            : 1 280 pixels
Height                           : 544 pixels
Display aspect ratio             : 2.35:1
Frame rate                       : 23.976 fps

Audio 1
Format                           : DTS
Format/Info                      : Digital Theater Systems
Codec ID                         : A_DTS
Bit rate mode                    : Constant
Bit rate                         : 1 510 Kbps
Channel(s)                       : 6 channels
Channel positions                : Front: L C R, Side: L R, LFE
Sampling rate                    : 48.0 KHz
Bit depth                        : 16 bits
Stream size                      : 1.76 GiB (21%)
Title                            : English_A

Audio 2
Format                           : AC-3
Format/Info                      : Audio Coding 3
Mode extension                   : CM (complete main)
Codec ID                         : A_AC3
Bit rate mode                    : Constant
Bit rate                         : 224 Kbps
Channel(s)                       : 2 channels
Channel positions                : Front: L R
Sampling rate                    : 48.0 KHz
Stream size                      : 267 MiB (3%)
Language                         : Polish

Text 1
Format                           : UTF-8
Codec ID                         : S_TEXT/UTF8
Codec ID/Info                    : UTF-8 Plain Text
Title                            : English_SUB

Text 2
Format                           : UTF-8
Codec ID                         : S_TEXT/UTF8
Codec ID/Info                    : UTF-8 Plain Text
Language                         : Polish
